<?xml version="1.0" encoding="utf-8"?>
<!-- Generator: Adobe Illustrator 17.0.0, SVG Export Plug-In . SVG Version: 6.00 Build 0)  -->
<!DOCTYPE svg PUBLIC "-//W3C//DTD SVG 1.1//EN" "http://www.w3.org/Graphics/SVG/1.1/DTD/svg11.dtd">
<svg version="1.1" id="Õ_xBA__xB1_Í" xmlns="http://www.w3.org/2000/svg" xmlns:xlink="http://www.w3.org/1999/xlink" x="0px"
	 y="0px" width="14.9px" height="14.5px" viewBox="0 0 14.9 14.5" enable-background="new 0 0 14.9 14.5" xml:space="preserve">
<path display="none" fill="#ff0000" d="M8,0h3.2c0.5,0,0.9,0.2,1.2,0.5c0.3,0.3,0.5,0.7,0.5,1.2v0.5h1.3c0.8,0,1.6,0.3,2.1,0.9
	c0.5,0.5,0.9,1.3,0.9,2.1v6.2c0,0.8-0.3,1.6-0.9,2.1c-0.5,0.5-1.3,0.9-2.1,0.9H5.1c-0.8,0-1.6-0.3-2.1-0.9l0,0
	c-0.5-0.5-0.8-1.3-0.8-2.1V5.2c0-0.8,0.3-1.6,0.9-2.1h0h0c0.5-0.5,1.3-0.9,2.1-0.9h1.3V1.7c0-0.5,0.2-0.9,0.5-1.2C7.2,0.2,7.6,0,8,0
	L8,0z M12.6,3.4L12.6,3.4C12.6,3.4,12.6,3.4,12.6,3.4L12.6,3.4l-5.9,0c0,0,0,0-0.1,0H5.1c-0.5,0-1,0.2-1.3,0.5l0,0
	C3.5,4.2,3.3,4.7,3.3,5.2v2.8h1.6v-1c0-0.2,0.2-0.3,0.3-0.3h0h2.5c0.2,0,0.3,0.2,0.3,0.3v0v1h3.1v-1c0-0.2,0.2-0.3,0.3-0.3h0H14
	c0.2,0,0.3,0.2,0.3,0.3v0v1H16V5.2c0-0.5-0.2-1-0.5-1.3c-0.3-0.3-0.8-0.5-1.3-0.5H12.6L12.6,3.4z M7.1,2.2L7.1,2.2h5.2V1.7
	c0-0.3-0.1-0.5-0.3-0.7c-0.2-0.2-0.4-0.3-0.7-0.3H8C7.8,0.7,7.5,0.8,7.3,1C7.2,1.2,7.1,1.4,7.1,1.7V2.2L7.1,2.2z M3.3,8.6L3.3,8.6
	v2.8c0,0.5,0.2,0.9,0.5,1.3l0,0c0.3,0.3,0.8,0.5,1.3,0.5h9.1c0.5,0,1-0.2,1.3-0.5c0.3-0.3,0.5-0.8,0.5-1.3V8.6h-1.6v1
	c0,0.2-0.2,0.3-0.3,0.3h0h-2.5c-0.2,0-0.3-0.1-0.3-0.3v0v-1H8.1v1c0,0.2-0.1,0.3-0.3,0.3h0H5.3c-0.2,0-0.3-0.1-0.3-0.3v0v-1H3.3
	L3.3,8.6z M7.4,7.3L7.4,7.3H5.6v1v0v0v1h1.8v-1v0v0V7.3L7.4,7.3z M13.6,7.3L13.6,7.3h-1.8v1v0v0v1h1.8v-1v0v0V7.3L13.6,7.3z"/>
<path display="none" fill="#ff0000" d="M19.1,0H2.8C2.5,0,2.2,0.3,2.2,0.7v9.1c0,0.4,0.3,0.7,0.7,0.7h0.4c0,0,0.1,0,0.1,0
	c0.1,0.2,0.2,0.5,0.3,0.7c0.1,0.2,0.2,0.3,0.4,0.4c-0.2,0-0.3,0.1-0.5,0.2c-0.3,0.2-0.6,0.4-0.8,0.7c-0.1,0.2-0.2,0.4-0.3,0.6l0,0
	c-0.1,0.2-0.1,0.4-0.1,0.6v0.3c0,0.2,0.2,0.4,0.4,0.4h16.3c0.2,0,0.4-0.2,0.4-0.4v-0.3c0-0.2,0-0.4-0.1-0.5c0-0.2-0.1-0.3-0.2-0.5
	c-0.1-0.2-0.2-0.3-0.3-0.4c-0.1-0.1-0.2-0.2-0.4-0.3l0,0c-0.2-0.1-0.4-0.2-0.5-0.3l-0.1,0c0.1-0.1,0.3-0.3,0.4-0.4
	c0.1-0.2,0.2-0.4,0.3-0.7h0.5c0.4,0,0.7-0.3,0.7-0.7V0.7C19.8,0.3,19.5,0,19.1,0L19.1,0z M18.1,12.5L18.1,12.5L18.1,12.5
	c0.1,0.1,0.2,0.1,0.3,0.2v0c0.1,0.1,0.1,0.2,0.2,0.3c0,0.1,0.1,0.2,0.1,0.3c0,0.1,0,0.1,0,0.2H3.2c0-0.1,0-0.2,0-0.2l0,0
	c0-0.1,0.1-0.3,0.2-0.4c0.1-0.2,0.3-0.3,0.5-0.4c0.2-0.1,0.4-0.2,0.6-0.2h2.5c0.1,0,0.3,0,0.4,0.1c0.1,0,0.3,0.1,0.4,0.2
	c0,0,0.1,0.1,0.1,0.1c0,0,0.1,0.1,0.1,0.1c0,0,0,0,0.1,0.1c0.2,0.1,0.4,0.1,0.6-0.1c0.1-0.1,0.3-0.3,0.5-0.3
	c0.2-0.1,0.4-0.1,0.6-0.1h2.5c0.1,0,0.3,0,0.4,0.1c0.1,0,0.2,0.1,0.4,0.2c0.1,0,0.1,0.1,0.1,0.1c0,0,0.1,0.1,0.1,0.1
	c0,0,0,0,0.1,0.1c0.2,0.1,0.4,0.1,0.6-0.1c0.1-0.1,0.3-0.3,0.5-0.3c0.2-0.1,0.4-0.1,0.6-0.1h2.5c0.1,0,0.3,0,0.4,0.1
	C17.9,12.4,18,12.4,18.1,12.5L18.1,12.5z M4,9.7L4,9.7c0-0.1,0-0.2,0-0.4c0-0.1,0.1-0.2,0.1-0.3c0.3-0.7,0.9-1.1,1.7-1.1
	c1,0,1.8,0.8,1.8,1.8c0,0.4-0.1,0.7-0.3,1c-0.2,0.3-0.5,0.5-0.8,0.7c-0.2,0.1-0.5,0.1-0.7,0.1c-0.2,0-0.5,0-0.7-0.1
	c-0.3-0.1-0.6-0.4-0.8-0.7C4.1,10.4,4,10,4,9.7L4,9.7z M7.6,11.5L7.6,11.5c0.1-0.1,0.3-0.3,0.4-0.4c0.2-0.3,0.3-0.7,0.4-1
	c0.1,0.4,0.2,0.7,0.4,1c0.1,0.2,0.2,0.3,0.4,0.4c-0.1,0-0.2,0.1-0.3,0.1c-0.2,0.1-0.3,0.2-0.4,0.3c-0.1,0-0.1-0.1-0.1-0.1
	C8.1,11.7,7.9,11.6,7.6,11.5L7.6,11.5L7.6,11.5z M9.2,9.7L9.2,9.7c0-0.1,0-0.2,0-0.4c0-0.1,0.1-0.2,0.1-0.3c0.3-0.7,0.9-1.1,1.7-1.1
	c1,0,1.8,0.8,1.8,1.8c0,0.4-0.1,0.7-0.3,1c-0.2,0.3-0.5,0.5-0.8,0.7l0,0c-0.2,0.1-0.5,0.1-0.7,0.1c-0.2,0-0.5,0-0.7-0.1
	c-0.3-0.1-0.6-0.4-0.8-0.7C9.3,10.4,9.2,10,9.2,9.7L9.2,9.7z M12.8,11.5L12.8,11.5c0.1-0.1,0.3-0.3,0.4-0.4c0.2-0.3,0.3-0.7,0.4-1
	c0.1,0.4,0.2,0.7,0.4,1c0.1,0.2,0.2,0.3,0.4,0.4c-0.1,0-0.2,0.1-0.3,0.1c-0.2,0.1-0.3,0.2-0.4,0.3c0,0-0.1-0.1-0.1-0.1
	C13.2,11.7,13,11.6,12.8,11.5L12.8,11.5L12.8,11.5z M14.3,9.7L14.3,9.7c0-0.1,0-0.2,0-0.3v0c0.2-0.8,0.9-1.4,1.8-1.4
	c1,0,1.8,0.8,1.8,1.8c0,0.4-0.1,0.7-0.3,1c-0.2,0.3-0.5,0.5-0.8,0.7l0,0c-0.2,0.1-0.5,0.1-0.7,0.1c-0.2,0-0.5,0-0.7-0.1
	c-0.3-0.1-0.6-0.4-0.8-0.7C14.4,10.4,14.3,10,14.3,9.7L14.3,9.7z M18.4,8.5L18.4,8.5c-0.1-0.2-0.3-0.5-0.5-0.6
	c-0.5-0.5-1.1-0.8-1.8-0.8c-1.1,0-2,0.6-2.4,1.6c-0.1,0.2-0.1,0.3-0.2,0.5l0,0l0,0.1C13.3,8,12.2,7.1,11,7.1c-1,0-2,0.6-2.4,1.6
	C8.5,8.8,8.4,9,8.4,9.2l0,0.1C8.2,8,7.1,7.1,5.8,7.1c-1,0-1.9,0.5-2.3,1.4V1.4h14.9V8.5L18.4,8.5z"/>
<path display="none" fill="#ff0000" d="M13.4,3.2h-2.6c0-0.2,0.1-0.4,0.1-0.7c0-0.7-0.3-1.3-0.7-1.8C9.6,0.3,9,0,8.3,0
	C6.9,0,5.8,1.1,5.8,2.5c0,0.2,0,0.5,0.1,0.7H3.2C3,3.2,2.8,3.4,2.8,3.6v2.5L0,12.3l0,0c-0.1,0.2,0,0.4,0.2,0.5L9.5,17l0,0
	c0.2,0.1,0.4,0,0.5-0.2l1.7-3.8h1.6c0.2,0,0.4-0.2,0.4-0.4v-9C13.8,3.4,13.6,3.2,13.4,3.2L13.4,3.2z M8.3,0.8L8.3,0.8
	c0.5,0,0.9,0.2,1.2,0.5C9.8,1.6,10,2,10,2.5C10,3,9.8,3.4,9.5,3.7C9.2,4,8.8,4.2,8.3,4.2C7.8,4.2,7.4,4,7.1,3.7
	C7,3.6,6.9,3.5,6.8,3.4v0l0,0l0,0v0l0,0l0,0C6.7,3.1,6.6,2.8,6.6,2.5C6.6,1.6,7.3,0.8,8.3,0.8L8.3,0.8z M9.4,16.1L9.4,16.1l-8.5-3.8
	l1.9-4.1v4.5C2.8,12.8,3,13,3.2,13h7.6L9.4,16.1L9.4,16.1z M12.9,12.2L12.9,12.2H3.6V4h2.6c0.1,0.1,0.2,0.2,0.3,0.3
	C7,4.7,7.6,5,8.3,5C9,5,9.6,4.7,10.1,4.3c0.1-0.1,0.2-0.2,0.3-0.3h2.6V12.2L12.9,12.2z M5.8,8L5.8,8c-0.3-0.3-0.7-0.3-1,0
	C4.6,8.3,4.6,8.7,4.8,9l2,2l0,0c0.3,0.3,0.7,0.3,1,0l4.1-4.1c0.3-0.3,0.3-0.7,0-1c-0.3-0.3-0.7-0.3-0.9,0L7.3,9.6L5.8,8L5.8,8z"/>
<path fill="#ff0000" d="M10.9,6h1.9c0.2,0,0.3-0.2,0.3-0.3c0-0.2-0.2-0.3-0.3-0.3h-1.9c-0.2,0-0.3,0.2-0.3,0.3
	C10.6,5.9,10.8,6,10.9,6L10.9,6z M2.2,8.7L2.2,8.7h1.9c0.2,0,0.3-0.1,0.3-0.3C4.4,8.2,4.3,8,4.1,8H2.2C2,8,1.8,8.2,1.8,8.4
	C1.8,8.6,2,8.7,2.2,8.7L2.2,8.7z M10.9,8.7L10.9,8.7h1.9c0.2,0,0.3-0.1,0.3-0.3C13.2,8.2,13,8,12.9,8h-1.9c-0.2,0-0.3,0.1-0.3,0.3
	C10.6,8.6,10.8,8.7,10.9,8.7L10.9,8.7z M10.9,3.4L10.9,3.4h1.9c0.2,0,0.3-0.1,0.3-0.3c0-0.2-0.2-0.3-0.3-0.3h-1.9
	c-0.2,0-0.3,0.2-0.3,0.3C10.6,3.2,10.8,3.4,10.9,3.4L10.9,3.4z M7.4,3.4L7.4,3.4h1.9c0.2,0,0.3-0.1,0.3-0.3c0-0.2-0.2-0.3-0.3-0.3
	H7.4C7.2,2.7,7,2.8,7,3C7,3.2,7.2,3.4,7.4,3.4L7.4,3.4z M14.3,0L14.3,0H5.9C5.6,0,5.3,0.2,5.3,0.5v4.9H0.7C0.4,5.5,0.1,5.7,0.1,6
	v7.9c0,0.3,0.3,0.6,0.6,0.6h13.6c0.3,0,0.6-0.2,0.6-0.6V0.5C14.9,0.2,14.6,0,14.3,0L14.3,0z M5.3,13.4L5.3,13.4h-4V6.6h4V13.4
	L5.3,13.4z M13.7,13.4L13.7,13.4H6.5V1.1h7.3V13.4L13.7,13.4z M7.4,11.4L7.4,11.4h1.9c0.2,0,0.3-0.1,0.3-0.3c0-0.2-0.2-0.3-0.3-0.3
	H7.4C7.2,10.7,7,10.9,7,11C7,11.2,7.2,11.4,7.4,11.4L7.4,11.4z M10.9,11.4L10.9,11.4h1.9c0.2,0,0.3-0.1,0.3-0.3
	c0-0.2-0.2-0.3-0.3-0.3h-1.9c-0.2,0-0.3,0.2-0.3,0.3C10.6,11.2,10.8,11.4,10.9,11.4L10.9,11.4z M7.4,8.7L7.4,8.7h1.9
	c0.2,0,0.3-0.1,0.3-0.3C9.6,8.2,9.5,8,9.3,8H7.4C7.2,8,7,8.2,7,8.4C7,8.6,7.2,8.7,7.4,8.7L7.4,8.7z M7.4,6L7.4,6h1.9
	c0.2,0,0.3-0.2,0.3-0.3c0-0.2-0.2-0.3-0.3-0.3H7.4C7.2,5.4,7,5.5,7,5.7C7,5.9,7.2,6,7.4,6L7.4,6z M2.2,11.4L2.2,11.4h1.9
	c0.2,0,0.3-0.1,0.3-0.3c0-0.2-0.2-0.3-0.3-0.3H2.2c-0.2,0-0.3,0.2-0.3,0.3C1.8,11.2,2,11.4,2.2,11.4L2.2,11.4z"/>
</svg>