<?xml version="1.0" ?><!DOCTYPE svg  PUBLIC '-//W3C//DTD SVG 1.1//EN'  'http://www.w3.org/Graphics/SVG/1.1/DTD/svg11.dtd'><svg enable-background="new 0 0 512 512" id="Layer_1" version="1.1" viewBox="0 0 512 512" xml:space="preserve" xmlns="http://www.w3.org/2000/svg" xmlns:xlink="http://www.w3.org/1999/xlink"><g id="Livello_110"><g><path d="M256.1,512L256.1,512c-4.4,0-8.5-2.2-11.1-5.8l-136.5-196c-27.7-33-43.3-76.1-43.3-120.3    C65.3,85.2,150.9,0,256,0s190.7,85.2,190.7,189.9c0,32.5-8.4,64.5-24.4,92.8c-0.4,1.1-0.9,2.1-1.6,3.1    c-5.3,8.6-10.2,15.6-15.6,22.3L267.2,506.2C264.7,509.8,260.5,512,256.1,512z M256,26.9c-90.3,0-163.7,73.1-163.7,162.9    c0,37.9,13.4,74.9,37.7,104l126.1,181.1l127.4-183c5.1-6.4,9.3-12.5,13.1-18.8c0-0.1,0.2-0.4,0.5-0.8c0.2-0.4,0.4-0.8,0.6-1.1    c14.4-24.7,21.9-52.9,21.9-81.4C419.7,100,346.3,26.9,256,26.9z M252.7,291.5c-56.3,0-102.1-45.6-102.1-101.7    S196.4,88.2,252.7,88.2h0c56.3,0,102.1,45.6,102.1,101.7S309,291.5,252.7,291.5z M252.7,115.1c-41.4,0-75.1,33.5-75.1,74.7    s33.7,74.7,75.1,74.7s75.1-33.5,75.1-74.7S294.1,115.1,252.7,115.1z" fill="#6A6E7C"/></g></g></svg>