<?xml version="1.0" ?><!DOCTYPE svg  PUBLIC '-//W3C//DTD SVG 1.1//EN'  'http://www.w3.org/Graphics/SVG/1.1/DTD/svg11.dtd'><svg enable-background="new 0 0 50 50" height="50px" id="Layer_1" version="1.1" viewBox="0 0 50 50" width="50px" xml:space="preserve" xmlns="http://www.w3.org/2000/svg" xmlns:xlink="http://www.w3.org/1999/xlink"><g><g><path clip-rule="evenodd" d="M38.604,19.979c-1.209,0-2.166,0.364-2.898,0.532l-0.225,2.094    c0.365-0.197,1.518-0.564,2.479-0.596c0.957-0.035,1.518,0.195,1.322,1.13c-2.844,0-4.76,0.666-5.155,2.758    c-0.563,3.589,2.902,3.493,4.278,1.93l-0.165,0.862h2.534l1.098-5.719C42.324,20.546,40.381,19.946,38.604,19.979z M38.773,25.827    c-0.141,0.768-0.678,1.101-1.322,1.131c-0.566,0.033-1.071-0.527-0.707-1.193c0.284-0.568,1.072-0.697,1.553-0.697    c0.194,0,0.422,0,0.619,0C38.859,25.331,38.832,25.563,38.773,25.827z" fill="#ffffff" fill-rule="evenodd"/><polygon clip-rule="evenodd" fill="#ffffff" fill-rule="evenodd" points="44.037,17.719 41.945,28.688 44.521,28.688     46.641,17.719 44.037,17.719 44.037,17.719   "/><path clip-rule="evenodd" d="M32.211,17.751h-4.713l-2.09,10.938h2.738l0.706-3.621h1.95    c1.918,0,3.5-1.334,3.922-3.593C35.207,18.915,33.568,17.751,32.211,17.751z M32.126,21.475c-0.169,0.831-0.904,1.495-1.606,1.495    h-1.27l0.564-2.991h1.355C31.873,19.979,32.295,20.644,32.126,21.475z" fill="#ffffff" fill-rule="evenodd"/><path clip-rule="evenodd" d="M13.924,19.979c-1.195,0-2.143,0.364-2.84,0.532l-0.22,2.094    c0.334-0.197,1.476-0.564,2.42-0.596c0.945-0.035,1.501,0.195,1.334,1.13c-2.81,0-4.702,0.666-5.087,2.758    c-0.561,3.589,2.865,3.493,4.197,1.93l-0.166,0.862h2.531l1.083-5.719C17.622,20.546,15.676,19.946,13.924,19.979z M14.119,25.827    c-0.142,0.768-0.697,1.101-1.339,1.131c-0.551,0.033-1.025-0.527-0.662-1.193c0.278-0.568,1.053-0.697,1.5-0.697    c0.219,0,0.419,0,0.64,0C14.202,25.331,14.146,25.563,14.119,25.827z" fill="#ffffff" fill-rule="evenodd"/><polygon clip-rule="evenodd" fill="#ffffff" fill-rule="evenodd" points="18.281,20.136 20.81,20.136 21.219,25.228     23.693,20.136 26.311,20.136 20.291,32.329 17.462,32.329 19.313,28.743 18.281,20.136 18.281,20.136   "/><path clip-rule="evenodd" d="M7.626,17.751h-4.72L0.809,28.688h2.774l0.679-3.621h1.98    c1.895,0,3.481-1.334,3.906-3.593C10.628,18.915,9.014,17.751,7.626,17.751z M7.542,21.475c-0.167,0.831-0.875,1.495-1.583,1.495    h-1.3l0.592-2.991h1.358C7.288,19.979,7.743,20.644,7.542,21.475z" fill="#ffffff" fill-rule="evenodd"/><path d="M47.195,19.136v-1.293h-0.424v-0.172h1.021v0.172h-0.427v1.293H47.195z" fill="#ffffff"/><path d="M47.965,19.136v-1.465h0.254l0.303,1.037c0.03,0.096,0.049,0.167,0.063,0.213    c0.016-0.053,0.038-0.129,0.069-0.23l0.311-1.02h0.227v1.465h-0.164v-1.229l-0.373,1.229h-0.158l-0.37-1.248v1.248H47.965z" fill="#ffffff"/></g></g></svg>