<?xml version="1.0" encoding="utf-8"?>
<!-- Generator: Adobe Illustrator 17.0.0, SVG Export Plug-In . SVG Version: 6.00 Build 0)  -->
<!DOCTYPE svg PUBLIC "-//W3C//DTD SVG 1.1//EN" "http://www.w3.org/Graphics/SVG/1.1/DTD/svg11.dtd">
<svg version="1.1" id="Õ_xBA__xB1_Í" xmlns="http://www.w3.org/2000/svg" xmlns:xlink="http://www.w3.org/1999/xlink" x="0px"
	 y="0px" width="15px" height="14.4px" viewBox="0 0 15 14.4" enable-background="new 0 0 15 14.4" xml:space="preserve">
<path fill="#ff0000" d="M5.9,0h3.2c0.5,0,0.9,0.2,1.2,0.5c0.3,0.3,0.5,0.7,0.5,1.2v0.5H12c0.8,0,1.6,0.3,2.1,0.9
	C14.7,3.6,15,4.3,15,5.2v6.2c0,0.8-0.3,1.6-0.9,2.1c-0.5,0.5-1.3,0.9-2.1,0.9H3c-0.8,0-1.6-0.3-2.1-0.9l0,0C0.3,12.9,0,12.2,0,11.4
	V5.2c0-0.8,0.3-1.6,0.9-2.1h0h0C1.4,2.5,2.2,2.2,3,2.2h1.3V1.7c0-0.5,0.2-0.9,0.5-1.2C5,0.2,5.4,0,5.9,0L5.9,0z M10.5,3.4L10.5,3.4
	C10.5,3.4,10.5,3.4,10.5,3.4L10.5,3.4l-5.9,0c0,0,0,0-0.1,0H3c-0.5,0-1,0.2-1.3,0.5l0,0C1.4,4.2,1.2,4.7,1.2,5.2v2.8h1.6v-1
	c0-0.2,0.2-0.3,0.3-0.3h0h2.5C5.8,6.6,6,6.7,6,6.9v0v1H9v-1c0-0.2,0.2-0.3,0.3-0.3h0h2.5c0.2,0,0.3,0.2,0.3,0.3v0v1h1.6V5.2
	c0-0.5-0.2-1-0.5-1.3C13,3.6,12.5,3.4,12,3.4H10.5L10.5,3.4z M4.9,2.2L4.9,2.2h5.2V1.7c0-0.3-0.1-0.5-0.3-0.7
	C9.6,0.8,9.4,0.7,9.1,0.7H5.9C5.6,0.7,5.4,0.8,5.2,1C5,1.2,4.9,1.4,4.9,1.7V2.2L4.9,2.2z M1.2,8.6L1.2,8.6v2.8
	c0,0.5,0.2,0.9,0.5,1.3l0,0C2,13,2.5,13.2,3,13.2H12c0.5,0,1-0.2,1.3-0.5c0.3-0.3,0.5-0.8,0.5-1.3V8.6h-1.6v1c0,0.2-0.2,0.3-0.3,0.3
	h0H9.4C9.2,10,9,9.9,9,9.7v0v-1H6v1C6,9.9,5.8,10,5.6,10h0H3.1C3,10,2.8,9.9,2.8,9.7v0v-1H1.2L1.2,8.6z M5.3,7.3L5.3,7.3H3.5v1v0v0
	v1h1.8v-1v0v0V7.3L5.3,7.3z M11.5,7.3L11.5,7.3H9.7v1v0v0v1h1.8v-1v0v0V7.3L11.5,7.3z"/>
</svg>
